<?xml version="1.0" encoding="utf-8"?>
<!-- Generator: Adobe Illustrator 16.0.0, SVG Export Plug-In . SVG Version: 6.00 Build 0)  -->
<!DOCTYPE svg PUBLIC "-//W3C//DTD SVG 1.1//EN" "http://www.w3.org/Graphics/SVG/1.1/DTD/svg11.dtd">
<svg version="1.1" id="Capa_1" xmlns="http://www.w3.org/2000/svg" xmlns:xlink="http://www.w3.org/1999/xlink" x="0px" y="0px"
	 width="64px" height="64px" viewBox="0 0 64 64" style="enable-background:new 0 0 64 64;" xml:space="preserve">
<style type="text/css">
<![CDATA[
	.st0{fill-rule:evenodd;clip-rule:evenodd;fill:#003399;}
	.st1{fill-rule:evenodd;clip-rule:evenodd;fill:#00A1D6;}
]]>
</style>
<path class="st1" d="M40.3,37.3c-3.3-2.6-9.7-6.5-13.6-8.4c-8.3,3-16.7,6-25.3,7.9c8.9-0.5,19.4,1.5,26.7,4.2
	C32.8,40.1,35.8,38.6,40.3,37.3"/>
<path class="st1" d="M33.2,58.6c-1.6-1.8-3.6-3.7-6.3-5.1c-4.3,1-9.9,2.2-14.3,2.9c4.8-0.2,11.9,0.6,14.6,2.9
	C29.2,59.1,31.2,58.9,33.2,58.6"/>
<path class="st1" d="M33.8,6.5C28.3,9.3,12.8,11.8,7.2,13c20.7-0.5,34.6,5.1,51.4,15c1.4-1.4,2.5-2.8,3.2-4.5
	C54.6,16.9,43,9.8,33.8,6.5"/>
<path class="st0" d="M7.2,13c2.1-0.1,11.9-1.6,13.2-1.9c3.8-0.8,9.3-2.1,12.2-3.8c0.8-0.5,7-4,2.9-6.1c-1.4-0.8-1.3-0.3-2.7,0.1
	C30.6,1.9,24,2.8,20.5,2.9C15.2,5,10.6,8.5,7.2,13"/>
<path class="st0" d="M46.4,4c-0.2,0-0.4,0-0.4,0.2C59.3,12.1,7.6,20.2,2.8,21c-1.3,3.4-2,7.1-2,10.9c0,1.7,0.1,3.3,0.4,4.9
	c0.2,0,0.3-0.1,0.5-0.1C13.9,34,75.3,18.5,46.4,4"/>
<path class="st0" d="M3.6,44.8c2.1,4.5,5.2,8.5,9,11.6c0.4-0.1,0.9-0.1,1.4-0.2c17.6-2.9,56.8-9.6,48-34.5
	C57.7,38.3,19.4,41.5,3.6,44.8"/>
<path class="st0" d="M18.5,60.1c15,7.3,33.3,1.5,41.4-13.1C47.7,57.9,34,58.9,18.5,60.1"/>
</svg>
