<?xml version="1.0" encoding="utf-8"?>
<!-- Generator: Adobe Illustrator 16.0.0, SVG Export Plug-In . SVG Version: 6.00 Build 0)  -->
<!DOCTYPE svg PUBLIC "-//W3C//DTD SVG 1.1//EN" "http://www.w3.org/Graphics/SVG/1.1/DTD/svg11.dtd">
<svg version="1.1" id="Capa_1" xmlns="http://www.w3.org/2000/svg" xmlns:xlink="http://www.w3.org/1999/xlink" x="0px" y="0px"
	 width="140px" height="160px" viewBox="0 0 140 160" style="enable-background:new 0 0 140 160;" xml:space="preserve">
<style type="text/css">
<![CDATA[
	.st0{fill:none;stroke:#C85000;stroke-width:2;stroke-linecap:round;stroke-linejoin:round;stroke-miterlimit:22.9256;}
	.st1{fill:none;stroke:#963C00;stroke-width:2;stroke-linecap:round;stroke-linejoin:round;stroke-miterlimit:22.9256;}
	.st2{fill:none;stroke:#FF6600;stroke-width:2;stroke-linecap:round;stroke-linejoin:round;stroke-miterlimit:22.9256;}
]]>
</style>
<line class="st1" x1="19.4" y1="24.8" x2="19.4" y2="131.6"/>
<polygon class="st2" points="54.5,2.6 117.9,19.6 117.9,36.4 101.5,35.2 101.5,42 117.9,43.3 117.9,108.1 101.5,111.6 101.5,118.4 
	117.9,114.9 117.9,132.8 54.3,157.4 "/>
<polygon class="st2" points="61.9,14.8 112.2,26.8 112.2,36 101.5,35.2 101.5,42 112.2,42.8 112.2,109.3 101.5,111.6 101.5,118.4 
	112.2,116.2 112.2,124.9 61.8,142.5 "/>
<polygon class="st2" points="101.5,35.2 120.6,36.6 120.6,43.5 101.5,42 "/>
<polygon class="st2" points="101.5,111.6 120.6,107.5 120.6,114.4 101.5,118.4 "/>
<path class="st2" d="M92.2,58.6c2.5,0,4.8,2.2,6.2,5.6c-2.1,0.1-3.8,3.6-3.8,8c0,4.4,1.7,8,3.9,8c0.1,0,0.2,0,0.3,0
	c-1.4,3.9-3.8,6.5-6.5,6.5c-4.3,0-7.7-6.3-7.7-14.1C84.5,64.9,87.9,58.6,92.2,58.6z"/>
<path class="st2" d="M94.4,61.4c1.4,0,2.8,1.1,3.7,2.9c-2,0.4-3.5,3.8-3.5,8c0,4.3,1.6,7.8,3.6,8c-1,1.9-2.4,3.1-3.9,3.1
	c-3.1,0-5.5-4.9-5.5-11C88.8,66.3,91.3,61.4,94.4,61.4z"/>
<ellipse class="st2" cx="98.4" cy="72.2" rx="3.9" ry="8"/>
<path class="st2" d="M66.6,19.6c0.5,0,0.9,1,0.9,2.2c0,1.2-0.4,2.2-0.9,2.2s-0.9-1-0.9-2.2C65.8,20.6,66.1,19.6,66.6,19.6z"/>
<path class="st2" d="M72,20.3c0.5,0,0.9,1,0.9,2.2c0,1.2-0.4,2.2-0.9,2.2c-0.5,0-0.9-1-0.9-2.2C71.1,21.2,71.5,20.3,72,20.3z"/>
<path class="st2" d="M77.3,21.4c0.5,0,0.9,1,0.9,2.2c0,1.2-0.4,2.2-0.9,2.2c-0.5,0-0.9-1-0.9-2.2C76.4,22.3,76.8,21.4,77.3,21.4z"/>
<path class="st2" d="M82.2,22.4c0.5,0,0.9,1,0.9,2.2c0,1.2-0.4,2.2-0.9,2.2c-0.5,0-0.9-1-0.9-2.2C81.4,23.3,81.8,22.4,82.2,22.4z"/>
<path class="st2" d="M87.1,23.8c0.5,0,0.9,1,0.9,2.2s-0.4,2.2-0.9,2.2c-0.5,0-0.9-1-0.9-2.2S86.6,23.8,87.1,23.8z"/>
<ellipse class="st2" cx="91.9" cy="26.8" rx="0.9" ry="2.2"/>
<ellipse class="st2" cx="96.5" cy="28.1" rx="0.9" ry="2.2"/>
<ellipse class="st2" cx="100.9" cy="29" rx="0.9" ry="2.2"/>
<path class="st2" d="M105.2,27.8c0.5,0,0.9,1,0.9,2.2s-0.4,2.2-0.9,2.2c-0.5,0-0.9-1-0.9-2.2S104.7,27.8,105.2,27.8z"/>
<ellipse class="st2" cx="109.5" cy="30.7" rx="0.9" ry="2.2"/>
<path class="st2" d="M66.6,30.9c0.5,0,0.9,1,0.9,2.2c0,1.2-0.4,2.2-0.9,2.2s-0.9-1-0.9-2.2C65.8,31.9,66.1,30.9,66.6,30.9z"/>
<path class="st2" d="M66.6,42.3c0.5,0,0.9,1,0.9,2.2s-0.4,2.2-0.9,2.2s-0.9-1-0.9-2.2S66.1,42.3,66.6,42.3z"/>
<path class="st2" d="M66.6,64.7c0.5,0,0.9,1,0.9,2.2S67.1,69,66.6,69s-0.9-1-0.9-2.2S66.1,64.7,66.6,64.7z"/>
<path class="st2" d="M66.6,76.3c0.5,0,0.9,1,0.9,2.2s-0.4,2.2-0.9,2.2s-0.9-1-0.9-2.2S66.1,76.3,66.6,76.3z"/>
<path class="st2" d="M66.6,98.9c0.5,0,0.9,1,0.9,2.2c0,1.2-0.4,2.2-0.9,2.2s-0.9-1-0.9-2.2C65.8,99.8,66.1,98.9,66.6,98.9z"/>
<path class="st2" d="M66.6,110.2c0.5,0,0.9,1,0.9,2.2c0,1.2-0.4,2.2-0.9,2.2s-0.9-1-0.9-2.2C65.8,111.2,66.1,110.2,66.6,110.2z"/>
<path class="st2" d="M66.6,121.9c0.5,0,0.9,1,0.9,2.2s-0.4,2.2-0.9,2.2s-0.9-1-0.9-2.2S66.1,121.9,66.6,121.9z"/>
<path class="st2" d="M66.6,133.5c0.5,0,0.9,1,0.9,2.2c0,1.2-0.4,2.2-0.9,2.2s-0.9-1-0.9-2.2C65.8,134.5,66.1,133.5,66.6,133.5z"/>
<path class="st2" d="M71.8,131.5c0.5,0,0.9,1,0.9,2.2c0,1.2-0.4,2.2-0.9,2.2c-0.5,0-0.9-1-0.9-2.2C71,132.5,71.4,131.5,71.8,131.5z"
	/>
<path class="st2" d="M77.1,129.8c0.5,0,0.9,1,0.9,2.2c0,1.2-0.4,2.2-0.9,2.2c-0.5,0-0.9-1-0.9-2.2C76.3,130.8,76.7,129.8,77.1,129.8
	z"/>
<ellipse class="st2" cx="82" cy="130.2" rx="0.9" ry="2.2"/>
<path class="st2" d="M87,126.8c0.5,0,0.9,1,0.9,2.2c0,1.2-0.4,2.2-0.9,2.2s-0.9-1-0.9-2.2C86.2,127.8,86.6,126.8,87,126.8z"/>
<path class="st2" d="M91.9,124.9c0.5,0,0.9,1,0.9,2.2c0,1.2-0.4,2.2-0.9,2.2s-0.9-1-0.9-2.2C91.1,125.9,91.4,124.9,91.9,124.9z"/>
<ellipse class="st2" cx="96.4" cy="126.1" rx="0.9" ry="2.2"/>
<path class="st2" d="M100.9,122.5c0.5,0,0.9,1,0.9,2.2c0,1.2-0.4,2.2-0.9,2.2c-0.5,0-0.9-1-0.9-2.2
	C100.1,123.5,100.5,122.5,100.9,122.5z"/>
<path class="st2" d="M105.2,121.2c0.5,0,0.9,1,0.9,2.2c0,1.2-0.4,2.2-0.9,2.2c-0.5,0-0.9-1-0.9-2.2
	C104.4,122.2,104.8,121.2,105.2,121.2z"/>
<ellipse class="st2" cx="109.4" cy="121.7" rx="0.9" ry="2.2"/>
<path class="st2" d="M109.5,46.9c0.5,0,0.9,1,0.9,2.2s-0.4,2.2-0.9,2.2s-0.9-1-0.9-2.2S109,46.9,109.5,46.9z"/>
<path class="st2" d="M109.4,55.9c0.5,0,0.9,1,0.9,2.2c0,1.2-0.4,2.2-0.9,2.2c-0.5,0-0.9-1-0.9-2.2C108.6,56.9,109,55.9,109.4,55.9z"
	/>
<path class="st2" d="M109.4,65c0.5,0,0.9,1,0.9,2.2s-0.4,2.2-0.9,2.2c-0.5,0-0.9-1-0.9-2.2S108.9,65,109.4,65z"/>
<path class="st2" d="M109.3,74.1c0.5,0,0.9,1,0.9,2.2c0,1.2-0.4,2.2-0.9,2.2c-0.5,0-0.9-1-0.9-2.2C108.4,75,108.8,74.1,109.3,74.1z"
	/>
<ellipse class="st2" cx="109.2" cy="85.3" rx="0.9" ry="2.2"/>
<path class="st2" d="M109.1,92.2c0.5,0,0.9,1,0.9,2.2c0,1.2-0.4,2.2-0.9,2.2c-0.5,0-0.9-1-0.9-2.2C108.2,93.2,108.6,92.2,109.1,92.2
	z"/>
<path class="st2" d="M109,101.3c0.5,0,0.9,1,0.9,2.2c0,1.2-0.4,2.2-0.9,2.2c-0.5,0-0.9-1-0.9-2.2C108.2,102.3,108.5,101.3,109,101.3
	z"/>
<path class="st2" d="M72,61.6V83c0,0.8-0.7,1.5-1.5,1.5h-3.7c-0.7,0.8-1.2,2.6-1.2,4.6c0,1.8,0.4,3.5,1.1,4.4c0.8,0,1.6,0,2.3,0
	c5.5-0.4,9.9-5.1,9.9-10.7V62c0-5.9-4.8-10.8-10.8-10.8h-1.3c-0.7,2.9-1.1,5.8,0,8.9h3.7C71.3,60.1,72,60.8,72,61.6z"/>
<line class="st0" x1="54.5" y1="2.6" x2="19.4" y2="24.8"/>
<line class="st0" x1="54.3" y1="157.3" x2="19.4" y2="131.6"/>
</svg>
