<?xml version="1.0" encoding="utf-8"?>
<!-- Generator: Adobe Illustrator 16.0.0, SVG Export Plug-In . SVG Version: 6.00 Build 0)  -->
<!DOCTYPE svg PUBLIC "-//W3C//DTD SVG 1.1//EN" "http://www.w3.org/Graphics/SVG/1.1/DTD/svg11.dtd">
<svg version="1.1" id="Capa_1" xmlns="http://www.w3.org/2000/svg" xmlns:xlink="http://www.w3.org/1999/xlink" x="0px" y="0px"
	 width="140px" height="160px" viewBox="0 0 140 160" style="enable-background:new 0 0 140 160;" xml:space="preserve">
<style type="text/css">
<![CDATA[
	.st0{fill:none;stroke:#00C800;stroke-width:2;stroke-linecap:round;stroke-linejoin:round;stroke-miterlimit:22.9256;}
	.st1{fill:none;stroke:#009600;stroke-width:2;stroke-linecap:round;stroke-linejoin:round;stroke-miterlimit:22.9256;}
	.st2{fill:none;stroke:#00FF00;stroke-width:2;stroke-linecap:round;stroke-linejoin:round;stroke-miterlimit:22.9256;}
]]>
</style>
<path class="st0" d="M55.1,85.2l0.2,6.8 M54.4,58.7l0.3,13.1 M53.8,34.8l0.4,15.6 M90,4L53.1,4.4l0.6,24.4"/>
<path class="st0" d="M39.5,32.5l35.9,4.3 M75.9,31.7c0.4,0.1-35.3-4-35.3-4"/>
<path class="st0" d="M36.5,54.2l35.8,8.1 M72.4,53.5c0.4,0.1-35.3-6.1-35.3-6.1"/>
<polyline class="st0" points="71.9,77.6 54.7,71.8 45.7,75.7 72.1,84.5 "/>
<path class="st0" d="M37,73.1l8.7,2.7 M72.5,91.1L37.7,78.8"/>
<polyline class="st0" points="73.3,99.3 55.2,92 48.1,95.1 74.4,106.8 "/>
<path class="st0" d="M40.2,91.1l7.9,4 M75.9,114.9L41.7,98.3"/>
<line class="st0" x1="70.1" y1="124.4" x2="35.8" y2="107.4"/>
<path class="st2" d="M89.8,15.8l-10,0c-7.6,30.9-11.3,63.1-4,99.1l-5.8,9.5l18.3-11.6L90,4"/>
<path class="st1" d="M53.3,14.3l-9.1,1.5C36,39.6,32.9,66,41.7,98.3l-5.9,9.1"/>
</svg>
