<?xml version="1.0" encoding="utf-8"?>
<!-- Generator: Adobe Illustrator 16.0.0, SVG Export Plug-In . SVG Version: 6.00 Build 0)  -->
<!DOCTYPE svg PUBLIC "-//W3C//DTD SVG 1.1//EN" "http://www.w3.org/Graphics/SVG/1.1/DTD/svg11.dtd">
<svg version="1.1" id="Capa_1" xmlns="http://www.w3.org/2000/svg" xmlns:xlink="http://www.w3.org/1999/xlink" x="0px" y="0px"
	 width="140px" height="160px" viewBox="0 0 140 160" style="enable-background:new 0 0 140 160;" xml:space="preserve">
<style type="text/css">
<![CDATA[
	.st0{fill:none;stroke:#00FFFF;stroke-miterlimit:22.9256;}
	.st1{fill:none;stroke:#00C8C8;stroke-linecap:round;stroke-linejoin:round;stroke-miterlimit:22.9256;}
	.st2{fill:none;stroke:#00FFFF;stroke-width:2;stroke-miterlimit:22.9256;}
	.st3{fill:none;stroke:#00C8C8;stroke-width:2;stroke-linecap:round;stroke-linejoin:round;stroke-miterlimit:22.9256;}
	.st4{fill:none;stroke:#00FFFF;stroke-linecap:round;stroke-linejoin:round;stroke-miterlimit:22.9256;}
]]>
</style>
<polygon class="st3" points="71,17.8 60,32.5 59.6,142.2 5.5,125.2 1.8,35.8 13.2,22.7 "/>
<line class="st3" x1="1.8" y1="35.8" x2="60" y2="32.5"/>
<path class="st1" d="M50.8,53.8l-0.1,52.1 M50.7,110.7l0,9.7L11.1,111L9.7,41h41.1l0,8.1"/>
<ellipse class="st1" cx="14.1" cy="55.4" rx="0.5" ry="1.3"/>
<path class="st1" d="M14.1,92.8c0.3,0,0.5,0.6,0.5,1.3c0,0.7-0.2,1.3-0.5,1.3c-0.3,0-0.5-0.6-0.5-1.3C13.6,93.3,13.8,92.8,14.1,92.8
	z"/>
<polygon class="st1" points="46.7,49.2 54.4,49.1 54.4,54 46.9,53.6 "/>
<polygon class="st1" points="46.8,105.2 54.1,106.5 54.3,111.2 46.9,110.1 "/>
<polygon class="st2" points="59.6,142.2 80.4,131.1 80.6,124.8 134.7,98.5 138.2,38.9 136.5,31.2 71,17.8 60,32.5 "/>
<path class="st4" d="M78.6,96.6l1.2-45.3 M80,47.1l0.3-10.3l18.5,2.3l-2.2,63.1l-18.3,7.7l0.2-9.3"/>
<polygon class="st4" points="77.7,46.9 82.4,47.3 82.6,51.2 77.7,51.4 "/>
<polygon class="st4" points="76.7,97.1 81.1,96 81.2,99.9 76.5,101.2 "/>
<polygon class="st4" points="97.8,68.6 93.8,69 93.8,75.1 97.6,74.5 "/>
<path class="st4" d="M125.6,84.3l-0.4,6.6l-13,5l3.3-56.8l12.8,1.3l-0.4,7.2 M127.7,50.3l-1.9,31.2"/>
<polygon class="st4" points="113.9,65.9 116.6,65.3 116.5,69.9 113.7,70.4 "/>
<polygon class="st4" points="129,47.5 126.6,47.5 126.7,50.3 128.9,50.3 "/>
<polygon class="st4" points="126.9,81.5 124.4,81.5 124.5,84.3 126.8,84.3 "/>
<path class="st4" d="M119.7,46.3h4.3c0.6,0,1.1,0.5,1.1,1.2l-0.7,13.9c0,0.6-0.6,1.2-1.2,1.2h-4.3c-0.6,0-1.1-0.5-1.1-1.2l0.7-13.9
	C118.6,46.8,119.1,46.3,119.7,46.3z"/>
<line class="st0" x1="104.9" y1="113" x2="107.7" y2="25.3"/>
</svg>
