<?xml version="1.0" encoding="utf-8"?>
<!-- Generator: Adobe Illustrator 16.0.0, SVG Export Plug-In . SVG Version: 6.00 Build 0)  -->
<!DOCTYPE svg PUBLIC "-//W3C//DTD SVG 1.1//EN" "http://www.w3.org/Graphics/SVG/1.1/DTD/svg11.dtd">
<svg version="1.1" id="Capa_1" xmlns="http://www.w3.org/2000/svg" xmlns:xlink="http://www.w3.org/1999/xlink" x="0px" y="0px"
	 width="140px" height="160px" viewBox="0 0 140 160" style="enable-background:new 0 0 140 160;" xml:space="preserve">
<style type="text/css">
<![CDATA[
	.st0{fill:none;stroke:#C80000;stroke-linecap:round;stroke-linejoin:round;stroke-miterlimit:22.9256;}
	.st1{fill:none;stroke:#FF0000;stroke-linecap:round;stroke-linejoin:round;stroke-miterlimit:22.9256;}
	.st2{fill:none;stroke:#960000;stroke-linecap:round;stroke-linejoin:round;stroke-miterlimit:22.9256;}
]]>
</style>
<polyline class="st2" points="19.7,136.3 13.3,126.1 3.5,18.3 "/>
<polyline class="st2" points="135.5,16.2 107.4,14.8 3.5,18.3 11,19.7 "/>
<polygon class="st0" points="136.5,16.2 11,19.7 19.7,136.3 126.8,108.2 "/>
<polyline class="st0" points="126.8,108.2 126.3,113.2 123.2,114 120.7,109.8 "/>
<polyline class="st0" points="19.7,136.3 20.1,141.2 26.5,140 27.7,134.2 "/>
<line class="st1" x1="130" y1="50.2" x2="17.2" y2="63.7"/>
<line class="st1" x1="126.9" y1="80.5" x2="20" y2="101.1"/>
<line class="st1" x1="82.2" y1="20.6" x2="80.8" y2="118"/>
<line class="st1" x1="61.5" y1="21.2" x2="62.3" y2="122.8"/>
<line class="st1" x1="38.2" y1="21.9" x2="42.8" y2="127.9"/>
<line class="st1" x1="118.9" y1="19.6" x2="112.7" y2="109.6"/>
<line class="st1" x1="101.3" y1="20.1" x2="97.5" y2="113.6"/>
<polygon class="st1" points="133.3,19.2 14.1,22.6 22.4,133.3 124.1,106.6 "/>
<line class="st1" x1="33.4" y1="25.7" x2="28.5" y2="25.7"/>
<line class="st1" x1="33.4" y1="28.8" x2="28.5" y2="28.8"/>
<line class="st1" x1="33.4" y1="31.7" x2="28.5" y2="31.7"/>
<line class="st1" x1="35.6" y1="66.7" x2="30.7" y2="67.2"/>
<line class="st1" x1="35.9" y1="69.9" x2="31" y2="70.3"/>
<line class="st1" x1="36.2" y1="72.8" x2="31.3" y2="73.2"/>
<line class="st1" x1="130" y1="23" x2="126.8" y2="23"/>
<line class="st1" x1="130" y1="25" x2="126.8" y2="25"/>
<line class="st1" x1="130" y1="26.9" x2="126.8" y2="26.9"/>
<line class="st1" x1="115.5" y1="23.8" x2="112.4" y2="23.8"/>
<line class="st1" x1="115.5" y1="25.8" x2="112.4" y2="25.8"/>
<line class="st1" x1="115.5" y1="27.7" x2="112.4" y2="27.7"/>
<line class="st1" x1="97.8" y1="23.8" x2="93.6" y2="23.8"/>
<line class="st1" x1="97.8" y1="26.5" x2="93.6" y2="26.5"/>
<line class="st1" x1="97.8" y1="29.1" x2="93.6" y2="29.1"/>
<line class="st1" x1="79.3" y1="24.8" x2="75" y2="24.8"/>
<line class="st1" x1="79.3" y1="27.5" x2="75" y2="27.5"/>
<line class="st1" x1="79.3" y1="30" x2="75" y2="30"/>
<line class="st1" x1="58.7" y1="24.7" x2="53.9" y2="24.7"/>
<line class="st1" x1="58.7" y1="27.8" x2="53.9" y2="27.8"/>
<line class="st1" x1="58.7" y1="30.8" x2="53.9" y2="30.8"/>
<line class="st1" x1="127.3" y1="55.2" x2="124.1" y2="55.5"/>
<line class="st1" x1="127.3" y1="57.3" x2="124.1" y2="57.6"/>
<line class="st1" x1="127.3" y1="59.2" x2="124.1" y2="59.5"/>
<line class="st1" x1="113.3" y1="57.5" x2="110.1" y2="57.8"/>
<line class="st1" x1="113.4" y1="59.6" x2="110.3" y2="59.8"/>
<line class="st1" x1="113.6" y1="61.5" x2="110.4" y2="61.7"/>
<line class="st1" x1="96.9" y1="59.1" x2="92.7" y2="59.5"/>
<line class="st1" x1="97.2" y1="61.8" x2="92.9" y2="62.2"/>
<line class="st1" x1="97.4" y1="64.3" x2="93.2" y2="64.7"/>
<line class="st1" x1="78.1" y1="61.8" x2="73.8" y2="62.2"/>
<line class="st1" x1="78.3" y1="64.6" x2="74.1" y2="64.9"/>
<line class="st1" x1="78.5" y1="67.1" x2="74.3" y2="67.5"/>
<line class="st1" x1="58.8" y1="63.7" x2="53.9" y2="64.2"/>
<line class="st1" x1="59.1" y1="66.8" x2="54.2" y2="67.3"/>
<line class="st1" x1="59.3" y1="69.7" x2="54.5" y2="70.2"/>
<line class="st1" x1="124.3" y1="86.2" x2="121.1" y2="86.7"/>
<line class="st1" x1="124.3" y1="88.2" x2="121.1" y2="88.7"/>
<line class="st1" x1="124.3" y1="90.1" x2="121.1" y2="90.6"/>
<line class="st1" x1="110.6" y1="89.6" x2="107.4" y2="90.2"/>
<line class="st1" x1="110.9" y1="91.6" x2="107.8" y2="92.2"/>
<line class="st1" x1="111.3" y1="93.5" x2="108.1" y2="94.1"/>
<line class="st1" x1="95.3" y1="92.4" x2="91.1" y2="93.2"/>
<line class="st1" x1="95.7" y1="95.1" x2="91.5" y2="95.8"/>
<line class="st1" x1="96.2" y1="97.6" x2="92" y2="98.3"/>
<line class="st1" x1="78.4" y1="95.8" x2="74.2" y2="96.6"/>
<line class="st1" x1="78.9" y1="98.5" x2="74.7" y2="99.3"/>
<line class="st1" x1="79.3" y1="101" x2="75.1" y2="101.8"/>
<line class="st1" x1="59.8" y1="100" x2="55" y2="100.8"/>
<line class="st1" x1="60.3" y1="103.1" x2="55.5" y2="103.9"/>
<line class="st1" x1="60.8" y1="105.9" x2="56" y2="106.8"/>
<line class="st1" x1="37.9" y1="104.9" x2="33.1" y2="105.7"/>
<line class="st1" x1="38.4" y1="108" x2="33.6" y2="108.8"/>
<line class="st1" x1="38.9" y1="110.8" x2="34.1" y2="111.7"/>
</svg>
