<?xml version="1.0" encoding="utf-8"?>
<!-- Generator: Adobe Illustrator 16.0.0, SVG Export Plug-In . SVG Version: 6.00 Build 0)  -->
<!DOCTYPE svg PUBLIC "-//W3C//DTD SVG 1.1//EN" "http://www.w3.org/Graphics/SVG/1.1/DTD/svg11.dtd">
<svg version="1.1" id="Capa_1" xmlns="http://www.w3.org/2000/svg" xmlns:xlink="http://www.w3.org/1999/xlink" x="0px" y="0px"
	 width="140px" height="160px" viewBox="0 0 140 160" style="enable-background:new 0 0 140 160;" xml:space="preserve">
<style type="text/css">
<![CDATA[
	.st0{fill:none;stroke:#C800C8;stroke-linecap:round;stroke-linejoin:round;stroke-miterlimit:22.9256;}
]]>
</style>
<path class="st0" d="M72.5,132.4l-3.8,1.2l3.5,4.1l7.3-2.2l-3.6-4.1l-0.5,0l0-5.1L95,121l-0.1,6.2l2.7,0l0.8-29l7.7-1.9l-1.6,37.5
	l-3.5,1.1l4.4,4.2l7-2.2l-4.6-4.2l-0.4,0.1l1.7-37.2l16.9-3.9l7.8,7.9l-1.5,15.3l-3.7,1.2l4.4,3.2l5.6-1.6l-3.6-2.6l2.4-26.1
	l0.6-0.1l0.2-2.5l-2.1-1.2l2.4-27c0.2-1.2-0.2-2.1-1.3-2.6L34.8,20.8L1.5,22.7l1.8,15.2L2.7,38l1.9,16.2l-1.5,0.2L4,55.3l3.6-0.3
	l-0.8-1H6L5,45l1.7-2l7.1,6.5l1.3,5l1.7,13.7L15,68.5l1,1.2l4.3-0.6l-1.1-1.3L18.5,68l-1.2-10.4l0.7-4.2l14.5,13.4l2.5,8.6l1.3,15.5
	l-2.4,0.6l1.7,2l5.5-1l-1.7-2.2l-1,0.2l-1-12.7l1.8-4.7l28.1,26l5,14.7L72.5,132.4z"/>
<path class="st0" d="M109.1,93.2l28.9-6.7 M2.7,38l70.2,63.6l33.3-7.7"/>
<polyline class="st0" points="67.2,99 72.9,103.9 98.4,98.2 "/>
<line class="st0" x1="69" y1="100.5" x2="72.2" y2="110"/>
<line class="st0" x1="72.2" y1="113.7" x2="72.2" y2="103.4"/>
<line class="st0" x1="72.2" y1="105.8" x2="71.1" y2="102.4"/>
<line class="st0" x1="72.9" y1="103.9" x2="72.9" y2="101.6"/>
<line class="st0" x1="74.9" y1="103.5" x2="75.4" y2="126.5"/>
<polyline class="st0" points="75.4,125.3 97,119.2 97.1,120.3 95,121 "/>
<polyline class="st0" points="75.4,123.7 95.1,118.2 95.2,114.1 "/>
<polyline class="st0" points="75.3,119.4 97.3,113.4 97.1,112.1 75.3,118 "/>
<polyline class="st0" points="75.2,116.5 95.1,111.3 95.3,106.9 "/>
<polyline class="st0" points="75.1,112.1 97.4,106.4 97.5,105.1 75.1,110.6 "/>
<polyline class="st0" points="75.1,109.2 95.3,104.1 95.6,98.8 "/>
<line class="st0" x1="125.8" y1="91.8" x2="137.2" y2="89"/>
<line class="st0" x1="134.9" y1="97" x2="129" y2="91"/>
<line class="st0" x1="130" y1="90.8" x2="130.7" y2="92.8"/>
<polyline class="st0" points="131.5,90.4 133.9,96 134.5,89.7 "/>
<line class="st0" x1="132.5" y1="90.2" x2="134.1" y2="93.8"/>
<line class="st0" x1="109.8" y1="76" x2="135.4" y2="71"/>
<path class="st0" d="M134.6,71.2l-1.2,14.6c0.1,0.8,2.2,0.9,2.3,0.3l0.2-0.8"/>
<path class="st0" d="M132.2,115l0,1.8c0.3,0.9,2.4,0.9,2.5,0.2l0.3-1.9"/>
<line class="st0" x1="104.5" y1="135.9" x2="104.5" y2="133.8"/>
<line class="st0" x1="107.1" y1="135.8" x2="107.3" y2="132.9"/>
<line class="st0" x1="32.5" y1="66.8" x2="39.2" y2="73"/>
<line class="st0" x1="35" y1="75.4" x2="34.5" y2="68.7"/>
<line class="st0" x1="33.4" y1="67.6" x2="34.8" y2="72.1"/>
<line class="st0" x1="36.8" y1="70.8" x2="36.9" y2="72.8"/>
<polyline class="st0" points="37.5,71.5 36.1,75.1 36.2,77.9 37.4,77.8 "/>
<line class="st0" x1="36.2" y1="77.9" x2="38.4" y2="72.3"/>
<line class="st0" x1="13.8" y1="49.6" x2="18" y2="53.5"/>
<polyline class="st0" points="16.7,52.3 16.1,55.4 16.4,57.7 17.3,57.6 "/>
<line class="st0" x1="16.4" y1="57.7" x2="17.3" y2="52.8"/>
<line class="st0" x1="15.1" y1="54.5" x2="15.2" y2="50.8"/>
<path class="st0" d="M14.4,50.1c0,0,0.9,2.8,0.7,2.8"/>
<line class="st0" x1="6.7" y1="43" x2="2.9" y2="39.6"/>
<path class="st0" d="M5.9,42.2c0.1-0.1-1.1,1-1.1,1"/>
<polyline class="st0" points="5.5,41.9 4.7,42.8 4.4,41 "/>
<polygon class="st0" points="4.7,37.8 3.8,30.4 19,29.2 19.7,36.7 "/>
<polygon class="st0" points="3,23.8 3.6,29 19,28.1 18.5,23.2 "/>
<polygon class="st0" points="21.1,36.6 35,35.4 34.6,28.3 20.3,29.2 "/>
<polygon class="st0" points="19.7,22.9 20,27.9 34.5,27 34.2,22.1 "/>
<polygon class="st0" points="35.6,27.2 35.3,22.5 52.5,28.4 52.8,34.3 "/>
<polygon class="st0" points="35.9,28.5 36.4,35.3 53.1,43.7 52.8,35.9 "/>
<polygon class="st0" points="54,29.1 54.1,34.8 65.5,39.5 65.3,33 "/>
<polygon class="st0" points="54.3,36.4 54.7,44.3 65.8,50.1 65.5,41.2 "/>
<polygon class="st0" points="66.9,33.6 67,40.2 82.2,46.5 82.2,39 "/>
<polygon class="st0" points="67.1,42 67.3,50.8 82.2,58.3 82.1,48.4 "/>
<polygon class="st0" points="83.9,39.6 84,47.2 104.3,55.6 104.5,46.8 "/>
<path class="st0" d="M84,49v10.2l12.1,6l0.2-2.4c0.1-0.6,1.1-0.9,1.6-1l6.3-1v-3.3L84,49z"/>
<polygon class="st0" points="106.7,47.7 131.9,56.7 113.9,59.4 106.3,56.2 "/>
<polygon class="st0" points="106.3,58.6 106.2,60.5 109.8,60.1 "/>
<polyline class="st0" points="102.1,63.9 135.8,58.5 134.9,68 118.6,61.2 "/>
<path class="st0" d="M102.4,63.8l6.9,3c0.6,0.4,0.7,1.1,0.7,1.8l0,3.7l1.3,0.7l23.5-4.2V68"/>
<line class="st0" x1="114.6" y1="61.9" x2="131.6" y2="69.4"/>
<line class="st0" x1="104.1" y1="64.5" x2="104.1" y2="63.6"/>
<line class="st0" x1="106.1" y1="65.4" x2="106.1" y2="63.2"/>
<line class="st0" x1="133.5" y1="84.3" x2="115.4" y2="74.9"/>
<line class="st0" x1="109" y1="95.7" x2="110.1" y2="72.3"/>
<polyline class="st0" points="106.1,96.3 107.2,69.3 99.3,65.2 99,75.5 107,74 "/>
<path class="st0" d="M99,74.1l8.1-1.5 M52.1,82.7l43.9-8"/>
<line class="st0" x1="44.2" y1="75.5" x2="96" y2="66.9"/>
<line class="st0" x1="95.6" y1="94.5" x2="96.2" y2="65.3"/>
<polyline class="st0" points="98.4,94.6 98.8,77.9 106.9,76.5 "/>
<line class="st0" x1="122.3" y1="78.5" x2="109.6" y2="81.3"/>
<line class="st0" x1="106.7" y1="82.1" x2="98.7" y2="83.6"/>
<line class="st0" x1="95.8" y1="84" x2="61.5" y2="91.3"/>
<line class="st0" x1="37.5" y1="69.5" x2="88.9" y2="61.6"/>
<line class="st0" x1="80.5" y1="57.5" x2="31.9" y2="64.5"/>
<line class="st0" x1="73.1" y1="53.7" x2="26.8" y2="59.8"/>
<line class="st0" x1="22.3" y1="55.7" x2="66.6" y2="50.5"/>
<line class="st0" x1="18.6" y1="52.4" x2="60.3" y2="47.2"/>
<line class="st0" x1="14.8" y1="48.9" x2="55.4" y2="44.7"/>
<line class="st0" x1="11.7" y1="46.2" x2="50" y2="42.2"/>
<line class="st0" x1="8.9" y1="43.6" x2="46" y2="40.1"/>
<line class="st0" x1="6.4" y1="41.4" x2="41.7" y2="38"/>
<line class="st0" x1="4" y1="39.2" x2="38.2" y2="36.2"/>
<path class="st0" d="M105.9,70.3l1.2,0.6 M99.3,66.9l4.7,2.4"/>
<path class="st0" d="M104,67.6l-0.1,3c0.6,0.4,1.3,0.4,2.1,0l0.1-2"/>
<path class="st0" d="M4.6,54.2C4.8,54.8,6,54.4,6,54"/>
<path class="st0" d="M16.8,68.2l0,0.5c0.1,0.4,1.8,0.2,1.7-0.1L18.5,68"/>
<path class="st0" d="M36.2,90.9l0.1,0.9c0.2,0.7,2.1,0.4,2.1,0l-0.1-1.4"/>
<path class="st0" d="M72.5,132.4l0.1,2.3c0.1,0.8,2.8,0.8,2.8,0l0-3.1"/>
<path class="st0" d="M95.6,94.5c0.9,0.2,1.8,0.2,2.7,0.1"/>
<line class="st0" x1="53.1" y1="43.7" x2="54.7" y2="44.3"/>
<line class="st0" x1="65.8" y1="50.1" x2="67.3" y2="50.8"/>
<line class="st0" x1="80.5" y1="57.5" x2="88.9" y2="61.6"/>
</svg>
