<?xml version="1.0" encoding="utf-8"?>
<!-- Generator: Adobe Illustrator 16.0.0, SVG Export Plug-In . SVG Version: 6.00 Build 0)  -->
<!DOCTYPE svg PUBLIC "-//W3C//DTD SVG 1.1//EN" "http://www.w3.org/Graphics/SVG/1.1/DTD/svg11.dtd">
<svg version="1.1" id="Capa_1" xmlns="http://www.w3.org/2000/svg" xmlns:xlink="http://www.w3.org/1999/xlink" x="0px" y="0px"
	 width="140px" height="160px" viewBox="0 0 140 160" style="enable-background:new 0 0 140 160;" xml:space="preserve">
<style type="text/css">
<![CDATA[
	.st0{fill:none;stroke:#CC6600;stroke-width:2;stroke-linecap:round;stroke-linejoin:round;stroke-miterlimit:22.9256;}
	.st1{fill:none;stroke:#FF6600;stroke-width:3;stroke-linecap:round;stroke-linejoin:round;stroke-miterlimit:22.9256;}
	.st2{fill:none;stroke:#0000FF;stroke-width:2;stroke-linecap:round;stroke-linejoin:round;stroke-miterlimit:22.9256;}
	.st3{fill:none;stroke:#B3B3B3;stroke-linecap:round;stroke-linejoin:round;stroke-miterlimit:22.9256;}
	.st4{fill:none;stroke:#0000FF;stroke-width:3;stroke-linecap:round;stroke-linejoin:round;stroke-miterlimit:22.9256;}
]]>
</style>
<g>
	<line class="st0" x1="36" y1="36.7" x2="135.8" y2="25.2"/>
	<path class="st0" d="M36,71.1c0,0,97.3-5.2,99.8-5.2"/>
	<line class="st0" x1="135.8" y1="103.1" x2="36" y2="100.8"/>
</g>
<line class="st2" x1="36" y1="135.6" x2="36" y2="26.9"/>
<line class="st2" x1="79.8" y1="141.5" x2="79.8" y2="21.5"/>
<line class="st2" x1="135.8" y1="145.9" x2="135.8" y2="14.5"/>
<line class="st3" x1="4.4" y1="135.2" x2="36" y2="130.6"/>
<line class="st3" x1="4.5" y1="102.5" x2="36" y2="130.6"/>
<path class="st3" d="M4.4,97.3c-2.4,0,31.6,0,31.6,0"/>
<line class="st3" x1="4.4" y1="66.7" x2="36" y2="97.3"/>
<path class="st3" d="M4.4,60.8c-2.4,0,31.6,3.9,31.6,3.9"/>
<line class="st3" x1="4.4" y1="29.8" x2="36" y2="63.4"/>
<line class="st3" x1="4.4" y1="25.1" x2="36" y2="32.1"/>
<line class="st3" x1="111.4" y1="147.9" x2="135.8" y2="138.7"/>
<path class="st3" d="M112.4,105.2c0,0,23.4,35.1,23.4,33.5"/>
<line class="st3" x1="111.4" y1="96.8" x2="135.8" y2="96.5"/>
<line class="st3" x1="112.1" y1="59.8" x2="135.8" y2="96.5"/>
<line class="st3" x1="135.8" y1="54.2" x2="112.1" y2="54.9"/>
<line class="st3" x1="111.4" y1="9.4" x2="135.8" y2="19"/>
<line class="st3" x1="135.8" y1="54.2" x2="111.4" y2="16"/>
<line class="st3" x1="53" y1="18.6" x2="79.8" y2="25.6"/>
<line class="st3" x1="53" y1="23.5" x2="79.8" y2="58.1"/>
<line class="st3" x1="53" y1="55.3" x2="79.8" y2="58"/>
<line class="st3" x1="53.3" y1="63.6" x2="79.8" y2="96.3"/>
<line class="st3" x1="53" y1="96.3" x2="79.8" y2="96.3"/>
<line class="st3" x1="53" y1="137.1" x2="79.8" y2="133.8"/>
<path class="st3" d="M53,99.8c0,0,26.8,35.6,26.8,34"/>
<line class="st4" x1="4.4" y1="141.5" x2="4.4" y2="21.5"/>
<line class="st4" x1="53" y1="145.9" x2="53" y2="14.5"/>
<line class="st4" x1="111.4" y1="155.9" x2="111.4" y2="4.1"/>
<g>
	<line class="st1" x1="4.5" y1="102.5" x2="53.1" y2="103.8"/>
	<line class="st1" x1="53.1" y1="103.8" x2="111.4" y2="105.2"/>
	<line class="st1" x1="4.4" y1="66.7" x2="53" y2="63.6"/>
	<line class="st1" x1="53" y1="63.6" x2="111.4" y2="59.8"/>
	<line class="st1" x1="4.4" y1="29.8" x2="53" y2="23.5"/>
	<line class="st1" x1="53" y1="23.5" x2="111.4" y2="16"/>
</g>
</svg>
