<?xml version="1.0" encoding="utf-8"?>
<!-- Generator: Adobe Illustrator 16.0.0, SVG Export Plug-In . SVG Version: 6.00 Build 0)  -->
<!DOCTYPE svg PUBLIC "-//W3C//DTD SVG 1.1//EN" "http://www.w3.org/Graphics/SVG/1.1/DTD/svg11.dtd">
<svg version="1.1" id="Capa_1" xmlns="http://www.w3.org/2000/svg" xmlns:xlink="http://www.w3.org/1999/xlink" x="0px" y="0px"
	 width="140px" height="160px" viewBox="0 0 140 160" style="enable-background:new 0 0 140 160;" xml:space="preserve">
<style type="text/css">
<![CDATA[
	.st0{fill:none;stroke:#0000C8;stroke-width:2;stroke-linecap:round;stroke-linejoin:round;stroke-miterlimit:22.9256;}
	.st1{fill:none;stroke:#0000FF;stroke-width:2;stroke-linecap:round;stroke-linejoin:round;stroke-miterlimit:22.9256;}
	.st2{fill:none;stroke:#000096;stroke-width:2;stroke-linecap:round;stroke-linejoin:round;stroke-miterlimit:22.9256;}
]]>
</style>
<path class="st2" d="M47.2,44c0,0.6,0-4.3,0-4.3l-31,0.5l1.2,58.2"/>
<polyline class="st2" points="15.5,40.1 13.2,40.4 14.2,86.5 4.2,89.5 17.3,92.6 "/>
<polyline class="st2" points="6.2,90 6.1,94.8 17.4,98.3 "/>
<polyline class="st2" points="14.2,83.2 5.7,80.2 13.8,78.7 "/>
<polyline class="st2" points="14,73.5 5.4,71.5 13.9,69.3 "/>
<polyline class="st2" points="13.8,65.2 4.2,62.6 13.7,61.3 "/>
<path class="st2" d="M13,55.3c0.8,0-7.6-1.7-8.8-1.7c-1.2,0,7.9-1.3,8.7-1.3"/>
<line class="st2" x1="17.4" y1="98.3" x2="19.6" y2="96.6"/>
<path class="st0" d="M33,84.9l0.1,2.5L18.7,92l68.1,18.3 M32.7,73.8l0.1,4.6 M32.4,63.8l0.2,6 M32.1,53.5l0.2,7.2 M85.8,42.5
	l-54,2.1l0.2,6.7"/>
<polyline class="st0" points="86.9,115.2 19.4,96.6 19.3,92.1 "/>
<polyline class="st0" points="86.6,94.7 18.5,82.2 32.8,78.5 86.5,87 "/>
<polyline class="st0" points="86.4,81.7 18.5,71.7 32.6,69.8 86.3,74.9 "/>
<polyline class="st0" points="85.7,68.6 18.5,62.6 32.6,60.7 86.2,64.4 "/>
<polyline class="st0" points="86,55.2 18.5,53.1 32.6,51.1 86,52.1 "/>
<line class="st0" x1="33.1" y1="87.3" x2="86.7" y2="99.1"/>
<polyline class="st1" points="87,117.9 85.7,33.6 89.2,33.6 89.4,118.6 "/>
<polyline class="st1" points="89.2,33.6 118.9,40.8 119,53.2 "/>
<polyline class="st1" points="89.4,58 93.5,56.1 103.9,55.2 106.5,52.3 "/>
<polyline class="st1" points="118.8,73 119.1,59.5 124.1,58.1 132.6,58.1 134.9,55.9 107,52.2 89.2,53.3 "/>
<polyline class="st1" points="89.4,77.8 93.5,75.8 103.7,76 104.8,74 "/>
<polygon class="st1" points="89.3,92.4 119.4,86.1 133.7,87.5 103.5,95 89.3,94.3 "/>
<polygon class="st1" points="89.3,110.1 119.5,100.8 136.4,104.1 107,116.4 89.3,112.1 "/>
<polyline class="st1" points="134.7,104.8 134.5,109.6 106.8,123.4 87,117.9 "/>
<polyline class="st1" points="133.2,74.2 134.4,72.8 89.3,74 "/>
<line class="st1" x1="119.5" y1="100.8" x2="119.4" y2="92.5"/>
<line class="st1" x1="103.9" y1="55.2" x2="132.6" y2="58.1"/>
<line class="st1" x1="103.7" y1="76" x2="133.2" y2="74.2"/>
<line class="st1" x1="118.9" y1="86.2" x2="118.9" y2="75.1"/>
<line class="st1" x1="106.8" y1="123.4" x2="107" y2="116.4"/>
</svg>
