<?xml version="1.0" encoding="utf-8"?>
<!-- Generator: Adobe Illustrator 16.0.0, SVG Export Plug-In . SVG Version: 6.00 Build 0)  -->
<!DOCTYPE svg PUBLIC "-//W3C//DTD SVG 1.1//EN" "http://www.w3.org/Graphics/SVG/1.1/DTD/svg11.dtd">
<svg version="1.1" id="Capa_1" xmlns="http://www.w3.org/2000/svg" xmlns:xlink="http://www.w3.org/1999/xlink" x="0px" y="0px"
	 width="200px" height="160px" viewBox="0 0 200 160" style="enable-background:new 0 0 200 160;" xml:space="preserve">
<style type="text/css">
<![CDATA[
	.st0{fill:none;stroke:#969600;stroke-width:3;stroke-linecap:round;stroke-linejoin:round;stroke-miterlimit:22.9256;}
	.st1{fill:none;stroke:#969600;stroke-linecap:round;stroke-linejoin:round;stroke-miterlimit:22.9256;}
	.st2{fill:none;stroke:#C8C800;stroke-linecap:round;stroke-linejoin:round;stroke-miterlimit:22.9256;}
]]>
</style>
<polygon class="st2" points="130.7,10.3 195.1,19.1 190.2,120.9 127.2,153.5 "/>
<polyline class="st1" points="127.2,153.5 125.3,154.4 104.9,143.9 105.8,79.7 126.4,83.6 125.3,154.4 "/>
<polyline class="st1" points="105.8,79.7 108.7,79 128.9,82.5 "/>
<line class="st1" x1="126.4" y1="83.6" x2="128.9" y2="82.5"/>
<polygon class="st1" points="91.2,138 75.7,130.2 75.7,73.6 90.6,76.4 "/>
<polyline class="st1" points="75.7,73.6 78.6,73 93.2,75.7 93.2,137.1 91.2,138 "/>
<line class="st1" x1="90.6" y1="76.7" x2="93.2" y2="75.7"/>
<polyline class="st1" points="52.8,76.1 52.6,69.3 65.1,71.2 65.4,125.6 53.5,120.3 52.8,79.7 "/>
<polyline class="st1" points="52.6,69.3 54.5,68.7 67,70.4 67.6,125 65.4,125.6 "/>
<line class="st1" x1="65.1" y1="71.2" x2="67" y2="70.4"/>
<polygon class="st1" points="35.9,111 34.8,65.8 44.7,67.1 45.3,115.7 "/>
<polyline class="st1" points="34.8,65.8 36.4,65.3 46.2,66.4 47.5,115 45.3,115.7 "/>
<line class="st1" x1="44.7" y1="67.1" x2="46.2" y2="66.4"/>
<polygon class="st1" points="20.7,104.3 20.1,62.7 28.1,64.3 29.3,108.5 "/>
<polyline class="st1" points="28.1,64.3 30.2,64.3 31.1,107.6 29.3,108.5 "/>
<polygon class="st1" points="8.9,98 7.9,60.6 14.6,62 15.9,101.8 "/>
<polyline class="st1" points="14.6,62 16.1,61.9 17.1,101.3 15.9,101.8 "/>
<polyline class="st1" points="130.7,10.3 3.8,22.7 5.4,95.9 8.8,97.1 "/>
<line class="st1" x1="17.1" y1="101.3" x2="20.7" y2="103.2"/>
<line class="st1" x1="31.3" y1="107.7" x2="35.9" y2="110.2"/>
<line class="st1" x1="47.5" y1="115" x2="53.4" y2="118.1"/>
<line class="st1" x1="67.6" y1="125" x2="75.8" y2="129"/>
<line class="st1" x1="93.2" y1="137.1" x2="104.9" y2="142.7"/>
<path class="st1" d="M126.8,81.7l1.2-66.9L111,16.2c0,0-0.2,61.8-0.3,62.5"/>
<polyline class="st1" points="107.2,79.4 107.2,16.5 78.3,18.8 78.6,73 "/>
<polyline class="st1" points="78.3,18.8 54.1,20.6 54.5,68.7 "/>
<polyline class="st1" points="36.4,65.3 34.8,22.3 54.1,20.8 "/>
<polyline class="st1" points="22.1,63.1 21.5,23.4 34.8,22.3 "/>
<polyline class="st1" points="9.2,60.9 8.8,24.4 21.5,23.4 "/>
<path class="st1" d="M122.1,94c2.7,0.1,3.1,3.2,0.7,4l-9.9,2.3c-2.6,0.6-3.5-6,0.2-6.1L122.1,94z"/>
<line class="st0" x1="122.3" y1="96.3" x2="118.6" y2="96.8"/>
<path class="st1" d="M82.8,99c-0.1,2.9-1.9,3.2-2.3,0.6l-1.2-10.8c-0.3-2.9,3.6-3.6,3.6,0.4L82.8,99z"/>
<line class="st0" x1="81.5" y1="100.2" x2="77.8" y2="100.7"/>
<path class="st1" d="M51.5,77.4c-1.1-1.9,0-2.8,1.2-1.3l4.9,6.5c1.3,1.7-0.9,3.7-2.4,1.1L51.5,77.4z"/>
<line class="st0" x1="51.8" y1="76.4" x2="48.2" y2="76.9"/>
<path class="st1" d="M41.8,76.5c1.3,0.4,1,1.9-0.2,1.9l-4.9-0.2c-1.3,0-0.9-3.2,0.8-2.8L41.8,76.5z"/>
<line class="st0" x1="41.4" y1="77.4" x2="37.7" y2="78.2"/>
<path class="st1" d="M26.2,78.8c0.5,1.7-0.7,2.1-1.5,0.7l-3.1-5.9c-0.8-1.6,1.8-2.6,2.7-0.4L26.2,78.8z"/>
<line class="st0" x1="25.6" y1="79.2" x2="21.9" y2="79.7"/>
<path class="st1" d="M11.5,76c0,1.7-1.3,1.8-1.7,0.2l-1.2-6.5c-0.3-1.7,2.5-1.9,2.7,0.4L11.5,76z"/>
<line class="st0" x1="10.1" y1="75.9" x2="6.5" y2="76.4"/>
</svg>
