<?xml version="1.0" encoding="utf-8"?>
<!-- Generator: Adobe Illustrator 16.0.0, SVG Export Plug-In . SVG Version: 6.00 Build 0)  -->
<!DOCTYPE svg PUBLIC "-//W3C//DTD SVG 1.1//EN" "http://www.w3.org/Graphics/SVG/1.1/DTD/svg11.dtd">
<svg version="1.1" id="Capa_1" xmlns="http://www.w3.org/2000/svg" xmlns:xlink="http://www.w3.org/1999/xlink" x="0px" y="0px"
	 width="140px" height="160px" viewBox="0 0 140 160" style="enable-background:new 0 0 140 160;" xml:space="preserve">
<style type="text/css">
<![CDATA[
	.st0{fill:none;stroke:#000000;stroke-linecap:round;stroke-linejoin:round;stroke-miterlimit:22.9256;}
]]>
</style>
<polygon class="st0" points="22.8,79.4 26.4,115.8 45.2,125.5 48.2,125.2 52.7,121.6 52.6,107.9 76.9,89.8 85.1,92.6 87.3,92.6 
	90.5,90.3 89.8,99.1 113.3,107.6 123,96.1 130.5,55 137,49.8 137.1,47.9 105.4,42.1 105.5,40.9 104.1,39 101.5,38.5 101.2,38.8 
	80,35.3 79.6,34.9 77.7,34.5 75.9,35.2 76,35.6 11.6,58.8 10.7,58.5 6.9,59.9 2.9,65 4,72.6 "/>
<polyline class="st0" points="11.6,58.8 42.4,68.7 42.5,71.3 38.8,73.2 36.2,77.1 36.5,82.9 39.4,84.1 43,82.1 43.1,84.3 39.5,86.4 
	32.1,83.6 32.1,83 22.8,79.4 "/>
<line class="st0" x1="39.4" y1="84.1" x2="39.5" y2="86.4"/>
<polyline class="st0" points="6.6,73.5 5.7,66 8.2,61.8 78.4,35.6 "/>
<polyline class="st0" points="39.2,67.7 35.6,69.6 31.5,75.4 32.1,83 "/>
<line class="st0" x1="6.9" y1="59.9" x2="38.6" y2="70.5"/>
<polyline class="st0" points="42.4,68.7 38.6,70.5 34.7,76.5 35.2,84.8 "/>
<line class="st0" x1="2.9" y1="65" x2="34.7" y2="76.5"/>
<polyline class="st0" points="75.9,35.2 102.5,40 102.5,41.5 103.8,40.9 104.5,42.1 105.4,42.1 "/>
<line class="st0" x1="102.5" y1="40" x2="42.4" y2="68.7"/>
<line class="st0" x1="100.1" y1="39.5" x2="39.2" y2="67.7"/>
<polyline class="st0" points="77.9,35.8 77.8,37.3 97.4,40.8 "/>
<polyline class="st0" points="78.1,37.3 77.8,42.2 89.5,44.4 "/>
<polyline class="st0" points="16.5,60.4 55.4,45.7 77.8,42.2 "/>
<line class="st0" x1="76.3" y1="50.5" x2="55.4" y2="45.7"/>
<line class="st0" x1="42.5" y1="71.3" x2="102.5" y2="41.5"/>
<line class="st0" x1="43.1" y1="83.2" x2="93.8" y2="54.6"/>
<polyline class="st0" points="104.5,42.1 88.2,50.1 88.1,52.1 124.2,60 130.5,55 "/>
<polyline class="st0" points="137.1,47.9 124.5,57.9 88.2,50.1 "/>
<line class="st0" x1="124.2" y1="60" x2="124.5" y2="57.9"/>
<line class="st0" x1="45.2" y1="125.5" x2="43.1" y2="84.3"/>
<line class="st0" x1="48.2" y1="125.2" x2="46.4" y2="81.3"/>
<line class="st0" x1="52.6" y1="107.9" x2="51.5" y2="78.4"/>
<line class="st0" x1="90.5" y1="90.3" x2="93.9" y2="53.4"/>
<line class="st0" x1="85.1" y1="92.6" x2="87.5" y2="58.1"/>
<line class="st0" x1="87.3" y1="92.6" x2="90" y2="56.7"/>
<polyline class="st0" points="51.9,90.3 72,77.5 85.8,81.9 52.5,106.4 "/>
<line class="st0" x1="76.9" y1="89.8" x2="85.7" y2="83.4"/>
<line class="st0" x1="72.2" y1="66.8" x2="72" y2="77.5"/>
<polyline class="st0" points="95.3,53.7 91.1,97.7 112.2,105.3 119.8,59 "/>
<line class="st0" x1="113.3" y1="107.6" x2="121.1" y2="59.3"/>
<line class="st0" x1="94.7" y1="60.6" x2="118.6" y2="66.1"/>
<line class="st0" x1="114" y1="94.3" x2="92.1" y2="87.1"/>
<polyline class="st0" points="114.3,92.3 92.3,85.2 103,77 105,63 "/>
<line class="st0" x1="116.1" y1="81.2" x2="103" y2="77"/>
<line class="st0" x1="91.1" y1="97.7" x2="100.1" y2="89.7"/>
</svg>
