<?xml version="1.0" encoding="utf-8"?>
<!-- Generator: Adobe Illustrator 16.0.0, SVG Export Plug-In . SVG Version: 6.00 Build 0)  -->
<!DOCTYPE svg PUBLIC "-//W3C//DTD SVG 1.1//EN" "http://www.w3.org/Graphics/SVG/1.1/DTD/svg11.dtd">
<svg version="1.1" id="Capa_1" xmlns="http://www.w3.org/2000/svg" xmlns:xlink="http://www.w3.org/1999/xlink" x="0px" y="0px"
	 width="500px" height="500px" viewBox="0 0 500 500" style="enable-background:new 0 0 500 500;" xml:space="preserve">
<style type="text/css">
<![CDATA[
	.st0{clip-path:url(#SVGID_2_);fill:url(#SVGID_4_);}
	.st1{clip-path:url(#SVGID_7_);fill:url(#SVGID_8_);}
	.st2{filter:url(#Adobe_OpacityMaskFilter);}
	.st3{fill-rule:evenodd;clip-rule:evenodd;fill:#808080;}
	.st4{font-family:'ClarendonBT-Black';}
	.st5{clip-path:url(#SVGID_2_);mask:url(#SVGID_3_);fill:url(#SVGID_5_);}
	.st6{fill-rule:evenodd;clip-rule:evenodd;}
	.st7{fill-rule:evenodd;clip-rule:evenodd;fill:#FFFFFF;}
	.st8{font-size:74.9617;}
	.st9{fill-rule:evenodd;clip-rule:evenodd;fill:#CCCCCC;}
	.st10{fill:none;stroke:#FFFFFF;stroke-width:0.8994;stroke-linecap:round;stroke-linejoin:round;stroke-miterlimit:22.9256;}
	.st11{fill-rule:evenodd;clip-rule:evenodd;fill:#003399;}
	.st12{fill-rule:evenodd;clip-rule:evenodd;fill:#00A1D6;}
]]>
</style>
<path class="st3" d="M288.4,234.2c-19.9-15.2-50.8-32.7-73.8-44.1c-32.9,11.7-60.6,19.6-70.6,21.8c-10.1,2.3-55.4,11.7-76.7,16.5
	l-3.2,0.7c51,1,98.3,8.9,141.3,24.7C233,248.4,261.4,242.1,288.4,234.2"/>
<path class="st12" d="M296.5,231.8c-19.9-15.2-57.6-38.7-80.6-50.2c-49.4,17.6-99.4,35.5-150.3,47.1c52.9-3,115.5,9.1,158.5,24.9
	C251.8,248.3,269.6,239.6,296.5,231.8"/>
<path class="st3" d="M246.8,359.8c-9.5-9.8-21.2-20.8-37.3-28.5c-25.6,5.4-49.6,9.5-69.3,12.7l-8.2,1.3c29.6,1.4,63.5,5.4,79.1,18.5
	C223.1,362.7,235.1,361.4,246.8,359.8"/>
<path class="st3" d="M254.8,50.5c-2,1.3-3.6,2.3-4.3,2.8c-17.2,9.9-49.7,17.9-72.2,22.5c-7.9,1.6-65.8,10.8-78.3,11.2
	c41.2,2.2,84.2,8.5,123,18.4c32.8,8,66.1,17.2,102.8,34.1c22.5,10.1,54.5,26.5,76.1,38c8.1-8.1,14.6-16.9,19-26.6
	C377.9,111.4,310,69.7,254.8,50.5"/>
<path class="st12" d="M254.3,358.5c-9.5-10.5-21.2-22.2-37.3-30.5c-25.8,5.8-59.1,12.8-85.1,17.3c28.4-1.1,71,3.5,86.6,17.5
	C230.6,361.7,242.6,360.3,254.3,358.5"/>
<path class="st12" d="M257.7,48.6C225.3,65.1,133.4,79.8,99.9,87c123-3,205.9,30.1,305.7,89.2c8.1-8.1,14.6-16.9,19-26.6
	C381.7,110,312.9,67.8,257.7,48.6"/>
<path class="st11" d="M99.9,87c12.5-0.4,70.5-9.6,78.3-11.2c22.6-4.6,55-12.7,72.2-22.5c4.5-3.1,41.8-23.7,17.5-36.6
	c-8.5-4.5-7.7-1.7-15.9,0.6c-13.3,3.7-52.4,9.2-72.9,9.7C147.6,39.5,120.3,60.4,99.9,87"/>
<path class="st11" d="M333,33.5c-1.3-0.1-2.2,0.2-2.5,1c79.3,47.1-228.2,95.3-257.1,100.2C65.9,155,61.7,177,61.7,199.9
	c0,9.9,0.8,19.7,2.3,29.2c1-0.2,2.1-0.5,3.2-0.7C139.6,212,504.4,119.9,333,33.5"/>
<path class="st11" d="M78.2,276.5c12.2,27,30.8,50.6,53.7,68.9c2.7-0.4,5.4-0.9,8.2-1.3c104.8-17,337.3-57.1,285.2-205.7
	C400,237.8,172.3,256.6,78.2,276.5"/>
<path class="st11" d="M167,367.5c89.1,43.2,197.9,9,245.9-78.3C340.5,354.3,259,360.4,167,367.5"/>
<path class="st9" d="M167.6,367.8c90,0.6,172-3.8,245.1-78.3c0.1-0.1,0.1-0.2,0.2-0.3c-50.7,45.6-105.9,62.3-166.1,70.6
	c-11.7,1.6-23.7,2.9-35.8,4.1c-14.4,1.4-29.1,2.5-44,3.6C167.2,367.6,167.4,367.7,167.6,367.8"/>
<path class="st9" d="M79.7,279.7c66.5-7.1,333.2-37.9,345.6-141.3c-1.1,4.3-2.6,8.5-4.4,12.6c-4.4,9.7-10.9,18.5-19,26.6
	c-25.4,25.3-67.2,43.2-113.5,56.7c-26.9,7.8-55.4,14.2-83.1,19.6c-48.9,9.5-95.5,16-127.1,22.7C78.7,277.5,79.2,278.6,79.7,279.7"/>
<path class="st9" d="M73.5,134.8c32.9,5.2,317.4-42,265.6-93.8c11.7,12.1-0.3,24.2-24.6,35.5c-22.8,10.6-56.5,20.4-91.6,28.9
	C157.2,121.4,86.6,132.5,73.5,134.8"/>
<path class="st9" d="M99.9,87c20.3-26.5,49.1-43.2,80.7-55.9c20.6-0.5,59.6-6,72.9-9.7c8.2-2.3,7.4-5,15.9-0.5
	c3.3,1.7,5.4,3.5,6.7,5.4c-0.3-3.4-2.7-6.7-8.1-9.6c-8.5-4.5-7.7-1.7-15.9,0.6c-13.3,3.7-52.4,9.2-72.9,9.7
	C147.6,39.5,120.3,60.4,99.9,87"/>
<path class="st7" d="M350.4,195.9c1-1.3,2.1-2.5,3.4-3.7c6.9-6.5,15.9-8.9,25.2-8.9c7.3,0,14.5,1.6,20.4,6.1
	c5.9,4.5,9.1,10.8,9.1,18.2c0,2.5-0.4,5-1.2,7.2h1.4l-0.3,9c-0.3,7.6-2.9,14.6-8.9,19.5c-5.9,4.9-13.5,6.6-21,6.6
	c-9.3,0-18-2.6-24.8-9.1c-0.9-0.9-1.7-1.8-2.5-2.7c-1.6,2.2-3.5,4.1-5.8,5.7c-6.3,4.6-14.1,6-21.7,6c-9.3,0-18.2-2.5-25.1-9
	c-0.4-0.4-0.8-0.8-1.2-1.2c-0.8,1.4-1.8,2.6-2.9,3.8c-5.1,5.1-12.4,6.5-19.3,6.5c-4,0-8.1-0.6-11.8-2c-3.8-1.5-7.1-3.7-9.6-6.8
	c-0.8-1-1.5-2.1-2.2-3.2c-1.5,2.2-3.4,4.2-5.7,5.9c-6,4.4-13.5,5.8-20.8,5.8c-4.1,0-8.2-0.4-12.2-1.4c-0.7-0.2-1.4-0.4-2.1-0.6
	l-0.5,1h-20.9v-0.7H153v-4.4c-7,4.6-15.2,6.3-23.6,6.3c-4.4,0-8.9-0.5-13.2-1.5c-1.8-0.4-3.6-1-5.4-1.6l-1,1.5H87.6v-41.6H89
	c0-0.1-0.1-0.2-0.1-0.2c-2-3.8-2.9-7.9-2.9-12.2c0-9,3.5-16.8,10.5-22.5c7-5.8,15.8-8,24.8-8c4.5,0,8.9,0.4,13.3,1.4
	c1.5,0.3,2.9,0.7,4.3,1.2l0.5-1h23.3v5.4c0.5-0.6,1-1.2,1.6-1.8c3.3-3.3,7.6-5.1,12.3-5.1c4.7,0,9,1.8,12.4,5.2
	c3.3,3.3,5.1,7.6,5.1,12.3c0,1.3-0.1,2.5-0.4,3.7h2.5v5.4c0.5-0.5,1.1-0.9,1.7-1.4c6.1-4.4,13.6-5.8,21-5.8c3.5,0,7,0.3,10.5,1.1
	c0.7,0.1,1.3,0.3,1.9,0.5l0.3-0.7h21.2v0.6c0.2-0.1,0.4-0.3,0.6-0.5c1.6-2.1,2.6-7.1,3-9.7l1.2-7.3h27.6V185h13.5v7
	c6.8-6.3,15.5-8.8,24.6-8.8c9.2,0,17.9,2.5,24.3,9.3C348.7,193.7,349.6,194.8,350.4,195.9"/>
<path class="st6" d="M399.5,223.5c-0.2,5.7-2.1,10.1-5.7,13.1c-3.6,3-8.8,4.6-15.4,4.6c-7.9,0-14.1-2.2-18.8-6.7
	c-4.6-4.5-7-10.4-7-17.9c0-7.6,2.4-13.6,7.1-17.9c4.7-4.4,11.1-6.6,19.3-6.6c6.3,0,11.3,1.4,15.1,4.3c3.7,2.9,5.6,6.6,5.6,11.3
	c0,3.1-0.9,5.5-2.7,7.2c-1.8,1.7-4.4,2.5-7.7,2.5c-2.7,0-4.8-0.7-6.4-2c-1.6-1.4-2.3-3.2-2.3-5.5c0-1.9,0.6-3.5,1.6-4.7
	c1.1-1.2,2.6-1.9,4.5-1.9c-0.5-0.8-1.1-1.4-1.9-1.8c-0.7-0.4-1.7-0.5-2.9-0.5c-3.1,0-5.3,1.1-6.6,3.4c-1.3,2.3-1.9,6.4-1.9,12.3
	c0,5.6,0.6,9.6,1.8,12c1.2,2.4,3.1,3.6,5.8,3.6c2.1,0,3.7-0.8,4.9-2.3c1.2-1.5,1.8-3.6,1.9-6.3H399.5z M317.1,210.8h14.1V210
	c0-3-0.6-5.3-1.8-7c-1.2-1.6-3-2.4-5.3-2.4c-2.2,0-3.9,0.9-5.2,2.6C317.8,205,317.1,207.5,317.1,210.8z M347.9,223.5
	c-1.1,5.9-3.7,10.3-7.7,13.2c-4,2.9-9.5,4.4-16.6,4.4c-8.1,0-14.4-2.2-19.1-6.6c-4.7-4.4-7-10.4-7-17.9c0-7.5,2.4-13.4,7.1-17.9
	c4.7-4.4,11-6.7,18.9-6.7c7.8,0,13.8,2.2,18,6.6c4.2,4.4,6.3,10.7,6.3,19v1.7h-30.5v0.9c0,3.8,0.8,6.8,2.4,8.8
	c1.6,2,3.9,3.1,6.9,3.1c2.5,0,4.6-0.7,6.2-2.2c1.6-1.5,2.7-3.6,3.2-6.4H347.9z M257.4,202.2H251v-8.4h0.4c3.9,0,6.9-1.4,9-4.2
	c2.1-2.8,3.7-7.3,4.7-13.6h11.5v17.8H290v8.4h-13.5v24.8c0,1.9,0.3,3.2,0.8,4.1c0.5,0.9,1.4,1.3,2.6,1.3c1.5,0,2.5-0.7,3-2.1
	c0.6-1.4,0.9-4.1,0.9-8.2v-4.3h8.4v6.2c0,6.2-1.3,10.7-4,13.3c-2.6,2.6-7,4-13.2,4c-3.3,0-6.2-0.5-8.7-1.4c-2.5-1-4.5-2.4-6.1-4.3
	c-1-1.3-1.8-2.7-2.2-4.3c-0.5-1.6-0.7-4.3-0.7-8.2V202.2z M204.8,240H198v-16.7h8.6c1,3,2.6,5.2,4.8,6.7c2.2,1.5,5,2.2,8.4,2.2
	c2.3,0,3.9-0.3,4.9-0.9c1-0.6,1.5-1.6,1.5-2.9c0-1.8-2.5-3.4-7.6-4.9c-1.7-0.5-3-0.9-4-1.2c-7.3-2.3-12.1-4.5-14.3-6.6
	c-2.2-2-3.3-4.8-3.3-8.4c0-4.7,2-8.4,5.9-11.2c3.9-2.8,9.2-4.2,15.9-4.2c3,0,5.9,0.3,8.6,0.9c2.8,0.6,5.4,1.5,8.1,2.7l1.4-2.7h7.2
	v14.4h-7.6c-1.3-2.3-3.1-4-5.4-5.2c-2.3-1.2-4.8-1.8-7.6-1.8c-1.9,0-3.5,0.3-4.6,0.9c-1.1,0.6-1.7,1.5-1.7,2.5c0,2,2.4,3.7,7.3,5.1
	c1.2,0.4,2.2,0.7,2.9,0.9c0.6,0.2,1.4,0.5,2.5,0.8c5.2,1.6,9,3.2,11.3,4.7c1.6,1.1,2.9,2.5,3.7,4.3c0.9,1.8,1.3,3.8,1.3,6
	c0,4.8-1.9,8.6-5.7,11.4c-3.8,2.8-9,4.2-15.7,4.2c-3.5,0-6.9-0.4-10-1.2c-3.2-0.8-5.9-1.9-8.3-3.3L204.8,240z M187.4,226.3
	c0,1.9,0.3,3.1,0.9,3.7c0.6,0.6,1.8,0.9,3.7,0.9h1.7v8.5h-31.9v-8.5h1.9c1.9,0,3.1-0.3,3.7-0.9c0.6-0.6,0.9-1.8,0.9-3.7v-19.5
	c0-1.9-0.3-3.1-0.9-3.7c-0.6-0.6-1.8-0.9-3.7-0.9h-1.9v-8.5h25.7V226.3z M167.8,181.4c0-2.4,0.8-4.5,2.5-6.2
	c1.7-1.7,3.7-2.5,6.2-2.5c2.4,0,4.5,0.9,6.2,2.6c1.7,1.7,2.6,3.8,2.6,6.2c0,2.4-0.9,4.5-2.6,6.2c-1.7,1.7-3.8,2.5-6.2,2.5
	c-2.5,0-4.5-0.8-6.2-2.5C168.6,185.9,167.8,183.9,167.8,181.4z M96.3,215.5h9.4c1.6,5,4.1,8.9,7.7,11.7c3.6,2.8,7.8,4.2,12.7,4.2
	c2.9,0,5.3-0.6,7.1-1.9c1.8-1.2,2.7-2.9,2.7-4.9c0-3.1-3.8-5.7-11.5-7.8c-2.5-0.7-4.5-1.2-5.9-1.7c-4.6-1.4-8.2-2.6-10.7-3.5
	c-2.5-1-4.3-1.9-5.4-2.7c-2.6-2-4.6-4.1-5.8-6.5c-1.2-2.4-1.9-5.1-1.9-8.1c0-6.5,2.4-11.8,7.3-15.8c4.8-4,11.3-6,19.2-6
	c4,0,7.8,0.4,11.4,1.2c3.5,0.8,6.9,2,10.2,3.6l1.8-3.3h9.4v22.5h-11c-1.1-4.6-3.1-8-6.1-10.3c-3-2.2-6.9-3.4-11.9-3.4
	c-2.9,0-5.3,0.7-7.2,2c-1.9,1.3-2.8,2.9-2.8,4.8c0,2.9,3.6,5.1,10.8,6.6c1.8,0.4,3.1,0.7,4.1,0.9c10,2.3,17.1,5.2,21.1,8.6
	c4,3.4,6.1,8,6.1,13.9c0,6.5-2.5,11.8-7.5,15.6c-5,3.9-11.7,5.8-20.1,5.8c-3.9,0-7.6-0.4-11.1-1.3c-3.6-0.9-7.1-2.2-10.6-3.9
	l-2.4,3.6h-8.9V215.5z"/>
<g>
	<defs>
		<path id="SVGID_1_" d="M247.3,9.6c105,0,190.2,85.3,190.2,190.6c0,105.3-85.2,190.6-190.2,190.6c-105,0-190.2-85.3-190.2-190.6
			C57.1,94.9,142.2,9.6,247.3,9.6"/>
	</defs>
	<clipPath id="SVGID_2_">
		<use xlink:href="#SVGID_1_"  style="overflow:visible;"/>
	</clipPath>
	<defs>
		<filter id="Adobe_OpacityMaskFilter" filterUnits="userSpaceOnUse" x="57.1" y="9.6" width="380.4" height="381.1">
			<feColorMatrix  type="matrix" values="1 0 0 0 0  0 1 0 0 0  0 0 1 0 0  0 0 0 1 0"/>
		</filter>
	</defs>
	<mask maskUnits="userSpaceOnUse" x="57.1" y="9.6" width="380.4" height="381.1" id="SVGID_3_">
		<g class="st2">
			
				<linearGradient id="SVGID_4_" gradientUnits="userSpaceOnUse" x1="99.1064" y1="360.8984" x2="368.3385" y2="91.6664" gradientTransform="matrix(1 0 0 1 13.5396 -26.0791)">
				<stop  offset="0" style="stop-color:#FFFFFF"/>
				<stop  offset="0.25" style="stop-color:#000000"/>
				<stop  offset="0.6" style="stop-color:#000000"/>
				<stop  offset="1" style="stop-color:#FFFFFF"/>
			</linearGradient>
			<rect x="57.1" y="9.6" class="st0" width="380.4" height="381.1"/>
		</g>
	</mask>
	<linearGradient id="SVGID_5_" gradientUnits="userSpaceOnUse" x1="112.6489" y1="334.8164" x2="381.881" y2="65.5844">
		<stop  offset="0" style="stop-color:#FFFFFF"/>
		<stop  offset="0.25" style="stop-color:#FFFFFF"/>
		<stop  offset="0.6" style="stop-color:#FFFFFF"/>
		<stop  offset="1" style="stop-color:#FEFEFE"/>
	</linearGradient>
	<rect x="57.1" y="9.6" class="st5" width="380.4" height="381.1"/>
</g>
<g>
	<defs>
		<path id="SVGID_6_" d="M442.3,434c0.9-0.8,2-1.4,3.1-2c5.3-2.9,11.6-3.7,17.6-3.7c3.4,0,6.8,0.2,10.1,0.9c3.1,0.6,6.2,1.6,8.8,3.4
			c2.8,1.9,5.1,4.4,6.4,7.5c1.4,3.1,1.7,6.8,1.7,10.2v0.4h8v13.6c0,5.5-1.3,10.9-5.4,14.8c-4,3.8-9.4,5-14.8,5
			c-3.4,0-6.8-0.6-9.9-2.2c-0.2-0.1-0.4-0.2-0.6-0.3c-0.5,0.2-0.9,0.4-1.4,0.6c-3.5,1.4-7.2,1.9-10.9,1.9c-5.2,0-10.4-1.3-14.4-4.7
			c-4.8,3.6-10.7,4.9-16.7,4.9c-4.8,0-9.5-0.9-13.7-2.9v1.5h-30.6c-1.2,5.2-4.5,9.3-9.5,12.1c-6.1,3.3-13.8,4.1-20.6,4.1
			c-6.1,0-13.5-0.4-19.2-2.6c-6-2.4-10.3-7-10.7-13.5h-56c-2.7,0.9-5.5,1.3-8.4,1.3c-3.5,0-6.9-0.5-10.1-1.7v0.4h-37.8
			c-2.7,0.9-5.6,1.3-8.5,1.3c-3.4,0-6.8-0.6-9.9-2.2c-0.2-0.1-0.4-0.2-0.6-0.3c-0.5,0.2-0.9,0.4-1.4,0.6c-3.5,1.4-7.2,1.9-10.9,1.9
			c-4.9,0-9.7-1.1-13.6-4c-4.2,3.2-9.6,4.3-14.8,4.3c-3.4,0-6.8-0.5-9.9-1.7c-3.3-1.3-6.1-3.3-8.4-6c-0.1-0.1-0.2-0.2-0.2-0.3
			c-0.9,1-2,1.9-3.1,2.7c-5.3,3.8-11.7,5.1-18.1,5.1c-5,0-9.8-0.9-14.1-2.9v1.6H1v-25.1h6.4v-18.1H1v-25.1h43.9l2.1,7.3l2.2-7.3
			h44.6v16.5c4.3-2,9-2.9,13.9-2.9c4.3,0,8.5,0.7,12.3,2.3v-1h9.3c0.8-1.5,1.5-4.8,1.7-6.2l1.2-7.6h25.5v13.8h10.4v1.5
			c4.9-2.2,10.5-2.8,15.8-2.8c3.4,0,6.8,0.2,10.1,0.9c3,0.6,6,1.5,8.6,3.2v-17.8h37.9v14.9h4l12.8-13.6c1.5-1.6,3.3-3.3,5.2-4.4
			c2.3-1.4,4.8-2.1,7.4-2.1c3.6,0,6.9,1.3,9.4,3.9c2.5,2.5,3.8,5.8,3.8,9.3c0,2.5-0.7,4.8-2,6.9h30.5c2.2-0.8,4.6-1.3,7-1.3
			c4.8,0,9.2,1.5,12.7,4.9c5.2-3.6,11.5-4.8,17.7-4.8c2.5,0,5,0.3,7.5,0.9c1,0.2,2,0.5,3,0.9c0.5-0.2,1-0.4,1.6-0.6
			c2.3-0.8,4.6-1.1,7-1.1c1.5,0,3,0.1,4.4,0.4c0-4.2,1.6-8,4.6-11c3-3,6.9-4.6,11.1-4.6c4.3,0,8.2,1.6,11.2,4.7
			c3,3,4.6,6.9,4.6,11.1c0,0.2,0,0.4,0,0.6h1.7v4.5c5.4-4.2,12-5.8,18.9-5.8c6.1,0,12.1,1.4,17.1,5.2
			C441.8,433.5,442.1,433.8,442.3,434"/>
	</defs>
	<clipPath id="SVGID_7_">
		<use xlink:href="#SVGID_6_"  style="overflow:visible;"/>
	</clipPath>
	<linearGradient id="SVGID_8_" gradientUnits="userSpaceOnUse" x1="0.9976" y1="454.2051" x2="498.0039" y2="454.2051">
		<stop  offset="0" style="stop-color:#C8C8C8"/>
		<stop  offset="0.5" style="stop-color:#FFFFFF"/>
		<stop  offset="1" style="stop-color:#C8C8C8"/>
	</linearGradient>
	<rect x="1" y="409.4" class="st1" width="497" height="89.6"/>
</g>
<text transform="matrix(0.998 0 0 1 8.7773 473.8867)" class="st10 st4 st8">Metalúr</text>
<text transform="matrix(0.998 0 0 1 328.6924 473.8867)" class="st10 st4 st8">gica</text>
<g>
	<g>
		<path d="M84.9,423.6v7.1h-2.5c-1.7,0-2.8,0.2-3.3,0.6c-0.5,0.4-0.7,1.6-0.7,3.6v27.5c0,2,0.3,3.3,0.8,3.7c0.5,0.4,1.6,0.6,3.3,0.6
			h2.5v7.1H57.3v-7.1h1.9c1.7,0,2.8-0.2,3.3-0.6c0.5-0.4,0.8-1.6,0.8-3.7v-30.6l-12.9,42.1H38.7l-12.2-42v30.5c0,2,0.2,3.2,0.7,3.6
			c0.5,0.5,1.6,0.7,3.4,0.7h1.9v7.1H10v-7.1h2.3c1.8,0,2.9-0.2,3.4-0.7c0.5-0.5,0.7-1.7,0.7-3.6V435c0-2-0.2-3.2-0.7-3.6
			c-0.5-0.5-1.6-0.7-3.4-0.7H10v-7.1h28.1l8.5,30l9.2-30H84.9z"/>
		<path d="M126.6,461.6c-0.9,4.6-2.8,8-5.9,10.3c-3.1,2.3-7.4,3.4-12.8,3.4c-6.2,0-11.1-1.7-14.7-5.1c-3.6-3.4-5.4-8.1-5.4-13.9
			c0-5.8,1.8-10.4,5.4-13.9s8.5-5.2,14.6-5.2c6,0,10.6,1.7,13.9,5.1c3.2,3.4,4.8,8.3,4.8,14.7v1.3H103v0.7c0,3,0.6,5.3,1.9,6.8
			c1.2,1.6,3,2.4,5.3,2.4c1.9,0,3.5-0.6,4.8-1.7c1.2-1.1,2.1-2.8,2.5-4.9H126.6z M103,451.7h10.8v-0.5c0-2.3-0.5-4.1-1.4-5.4
			c-1-1.3-2.3-1.9-4.1-1.9c-1.7,0-3,0.7-4,2C103.5,447.3,103,449.2,103,451.7z"/>
		<path d="M134,445h-4.9v-6.6h0.3c3,0,5.3-1.1,6.9-3.2c1.6-2.1,2.9-5.7,3.6-10.5h8.8v13.8h10.4v6.6h-10.4v19.2
			c0,1.4,0.2,2.5,0.6,3.2c0.4,0.7,1.1,1,2,1c1.1,0,1.9-0.5,2.3-1.6c0.4-1.1,0.7-3.2,0.7-6.3v-3.3h6.4v4.8c0,4.9-1,8.3-3.1,10.4
			c-2,2-5.4,3.1-10.1,3.1c-2.6,0-4.8-0.4-6.7-1.1c-1.9-0.7-3.5-1.8-4.7-3.3c-0.8-1-1.4-2.1-1.7-3.3c-0.4-1.2-0.5-3.3-0.5-6.4V445z"
			/>
		<path d="M188.9,470.2c-1.3,1.6-3,2.8-5.3,3.7c-2.2,0.9-4.8,1.3-7.6,1.3c-3.7,0-6.6-0.9-8.6-2.6c-2-1.7-3-4.2-3-7.4
			c0-3.1,0.9-5.5,2.7-7c1.8-1.6,5.3-2.8,10.4-3.7c4.3-0.7,6.9-1.5,8.1-2.4c1.1-0.9,1.7-2.2,1.7-4.1c0-1.8-0.6-3.2-1.9-4.3
			c-1.2-1.1-2.9-1.6-5.1-1.6c-0.7,0-1.4,0.1-2.2,0.3c-0.7,0.2-1.5,0.5-2.3,0.9c1.3,0.4,2.3,1,2.9,1.8c0.6,0.8,1,1.8,1,3.1
			c0,1.5-0.6,2.8-1.8,3.7c-1.2,1-2.8,1.4-4.7,1.4c-2.3,0-4.1-0.5-5.4-1.6c-1.3-1.1-1.9-2.6-1.9-4.6c0-3.1,1.6-5.5,4.7-7.2
			c3.2-1.7,7.6-2.6,13.3-2.6c3.1,0,5.9,0.2,8.3,0.7c2.4,0.5,4.3,1.2,5.6,2c1.5,1,2.6,2.2,3.2,3.6c0.6,1.4,0.9,3.6,0.9,6.6v13.7
			c0,0.9,0.1,1.5,0.3,1.8c0.2,0.3,0.6,0.4,1.2,0.4s1-0.1,1.2-0.4c0.2-0.3,0.3-0.9,0.3-1.8v-4.3h4.9v4.6c0,3.9-0.9,6.7-2.6,8.3
			s-4.6,2.5-8.6,2.5c-2.2,0-4.2-0.4-5.8-1.2C191.4,473.1,190,471.9,188.9,470.2z M187.4,457.5c-0.9,0.5-2,1.1-3.5,1.8
			c-3.3,1.6-5,3.1-5,4.6c0,1,0.4,1.9,1.1,2.5c0.7,0.7,1.7,1,2.8,1c1.4,0,2.5-0.5,3.4-1.4s1.3-2.2,1.3-3.7V462L187.4,457.5z"/>
		<path d="M216.7,433.7c0-1.4-0.2-2.4-0.7-2.8c-0.5-0.5-1.4-0.7-2.8-0.7h-1.6v-6.6h19.9v40.2c0,1.5,0.2,2.4,0.7,2.9
			c0.5,0.4,1.4,0.7,2.8,0.7h1.2v6.6h-24.5v-6.6h1.6c1.4,0,2.3-0.2,2.8-0.7c0.5-0.5,0.7-1.4,0.7-2.8V433.7z"/>
		<path d="M268.3,468.7c-1.6,2.1-3.5,3.7-5.7,4.8c-2.2,1.1-4.7,1.7-7.3,1.7c-4.5,0-7.7-1-9.6-2.9c-1.9-2-2.8-5.4-2.8-10.2v-13.5
			c0-1.5-0.2-2.4-0.7-2.9c-0.5-0.4-1.4-0.7-2.8-0.7h-1.2v-6.6h19.4v22.9c0,2,0.4,3.6,1.2,4.6c0.8,1,2,1.5,3.6,1.5
			c1.7,0,3.1-0.6,4.1-1.9c1-1.3,1.5-3,1.5-5.3v-11.6c0-1.5-0.2-2.4-0.7-2.9c-0.5-0.4-1.4-0.6-2.8-0.6H263v-6.6h19.7v25.3
			c0,1.4,0.2,2.4,0.7,2.8c0.5,0.5,1.4,0.7,2.8,0.7h1.6v6.6h-19.4V468.7z M253,433.6l10.8-11.5c1.3-1.4,2.4-2.4,3.3-2.9
			c0.9-0.5,1.8-0.8,2.8-0.8c1.2,0,2.2,0.4,3,1.2c0.8,0.8,1.2,1.8,1.2,3c0,0.9-0.3,1.8-0.9,2.5s-1.6,1.5-3,2.2l-12.6,6.3H253z"/>
		<path d="M309.4,442c1.3-1.6,2.7-2.8,4.2-3.6c1.5-0.8,3.2-1.2,4.9-1.2c2.7,0,4.8,0.8,6.4,2.4s2.4,3.7,2.4,6.3
			c0,2.3-0.6,4.1-1.9,5.5c-1.3,1.4-3,2-5.1,2c-1.7,0-3-0.5-4.1-1.6c-1.1-1-1.7-2.4-1.7-3.9c0-1.1,0.3-2,0.8-2.8
			c0.5-0.8,1.4-1.5,2.4-2c-0.3-0.1-0.6-0.1-0.8-0.2c-0.3,0-0.5-0.1-0.8-0.1c-2,0-3.6,0.9-4.7,2.8c-1.2,1.9-1.7,4.4-1.7,7.7v10.4
			c0,1.4,0.2,2.4,0.7,2.8c0.5,0.5,1.4,0.7,2.8,0.7h2.4v6.6h-25.4v-6.6h1.3c1.4,0,2.4-0.2,2.8-0.7c0.5-0.5,0.7-1.4,0.7-2.8v-15.2
			c0-1.5-0.2-2.4-0.7-2.9c-0.5-0.4-1.4-0.7-2.8-0.7h-1.3v-6.6h19.1V442z"/>
	</g>
	<g>
		<path d="M335.1,461.3c-1.4-1.2-2.5-2.6-3.2-4.2c-0.7-1.6-1.1-3.5-1.1-5.5c0-4.5,1.6-8,4.7-10.5c3.2-2.5,7.6-3.7,13.3-3.7
			c1.9,0,3.7,0.2,5.4,0.6c1.8,0.4,3.7,1.1,5.7,2c1.2-0.9,2.5-1.6,3.8-2c1.3-0.4,2.7-0.6,4.1-0.6c2.8,0,5,0.7,6.7,2
			c1.7,1.3,2.6,3.1,2.6,5.3c0,1.6-0.5,2.9-1.4,3.9c-0.9,1-2.2,1.5-3.7,1.5c-1.7,0-3-0.4-4.1-1.2c-1.1-0.8-1.6-1.8-1.6-3
			c0-0.7,0.2-1.4,0.5-2.1c0.4-0.7,0.9-1.3,1.7-1.9c-0.4-0.3-0.8-0.6-1.1-0.7c-0.3-0.1-0.6-0.2-1-0.2c-0.6,0-1.2,0.2-1.9,0.5
			c-0.7,0.3-1.5,0.8-2.3,1.5c1,1.1,1.7,2.4,2.2,3.9c0.5,1.5,0.7,3.2,0.7,5.1c0,4.2-1.6,7.6-4.9,10.2c-3.3,2.6-7.6,3.9-13,3.9
			c-1.1,0-2.3-0.1-3.4-0.3c-1.2-0.2-2.3-0.5-3.5-0.9c-0.4,0.2-0.8,0.5-1,0.8c-0.3,0.3-0.4,0.7-0.4,1c0,0.8,0.3,1.3,0.8,1.6
			c0.6,0.3,1.9,0.4,4.1,0.4c1.8,0,4.3,0,7.3-0.1s5.1-0.1,6.2-0.1c4.8,0,8.3,0.8,10.4,2.3c2.2,1.5,3.3,4,3.3,7.4c0,4-1.8,6.9-5.4,8.9
			c-3.6,2-9,2.9-16.3,2.9c-7.2,0-12.5-0.7-15.9-2c-3.4-1.3-5.1-3.4-5.1-6.3c0-1.3,0.4-2.4,1.2-3.4s2-1.8,3.5-2.4c-1.3-1-2.4-2-3-3.2
			s-1-2.4-1-3.8c0-1.7,0.5-3.2,1.6-4.6C331.7,463.1,333.2,462,335.1,461.3z M339.8,481.8c0,1,0.8,1.7,2.5,2.1
			c1.7,0.4,4.4,0.7,8.1,0.7c3.6,0,6.2-0.2,7.8-0.7c1.6-0.5,2.4-1.2,2.4-2.2c0-0.9-0.7-1.6-2.2-2c-1.4-0.4-4.1-0.6-7.9-0.6
			c-4.1,0-7,0.2-8.5,0.6C340.6,480.1,339.8,480.8,339.8,481.8z M348.2,460.9c1.1,0,1.9-0.7,2.4-2.2c0.5-1.5,0.8-3.9,0.8-7.2
			c0-3.2-0.3-5.5-0.7-6.9c-0.5-1.4-1.3-2.1-2.4-2.1c-1.3,0-2.2,0.7-2.8,2.1c-0.5,1.4-0.8,3.9-0.8,7.4c0,3.1,0.3,5.4,0.8,6.8
			C346.1,460.2,347,460.9,348.2,460.9z"/>
		<path d="M396.5,463.8c0,1.4,0.2,2.4,0.7,2.8c0.5,0.5,1.4,0.7,2.8,0.7h1.3v6.6h-24.5v-6.6h1.5c1.4,0,2.4-0.2,2.8-0.7
			c0.5-0.5,0.7-1.4,0.7-2.8v-15.2c0-1.5-0.2-2.4-0.7-2.9c-0.5-0.4-1.4-0.7-2.8-0.7h-1.5v-6.6h19.8V463.8z M381.4,428.9
			c0-1.9,0.7-3.5,2-4.8c1.3-1.3,2.9-2,4.8-2s3.5,0.7,4.8,2c1.3,1.3,2,2.9,2,4.8s-0.7,3.5-2,4.8c-1.3,1.3-2.9,2-4.8,2
			c-1.9,0-3.5-0.6-4.8-1.9C382,432.4,381.4,430.8,381.4,428.9z"/>
		<path d="M440.3,461.6c-0.1,4.4-1.6,7.8-4.4,10.2c-2.8,2.4-6.8,3.5-11.9,3.5c-6.1,0-10.9-1.7-14.5-5.2c-3.6-3.5-5.4-8.1-5.4-13.9
			c0-5.9,1.8-10.5,5.4-13.9c3.6-3.4,8.6-5.1,14.8-5.1c4.8,0,8.7,1.1,11.6,3.3c2.9,2.2,4.3,5.1,4.3,8.7c0,2.4-0.7,4.3-2.1,5.6
			c-1.4,1.3-3.4,2-5.9,2c-2.1,0-3.7-0.5-4.9-1.6c-1.2-1-1.8-2.5-1.8-4.3c0-1.5,0.4-2.7,1.3-3.7c0.8-0.9,2-1.4,3.5-1.5
			c-0.4-0.6-0.9-1.1-1.4-1.4c-0.6-0.3-1.3-0.4-2.2-0.4c-2.4,0-4.1,0.9-5.1,2.7c-1,1.8-1.5,5-1.5,9.6c0,4.3,0.5,7.4,1.4,9.3
			c0.9,1.8,2.4,2.8,4.5,2.8c1.6,0,2.9-0.6,3.8-1.8c0.9-1.2,1.4-2.8,1.5-4.9H440.3z"/>
		<path d="M467.9,470.2c-1.3,1.6-3,2.8-5.3,3.7c-2.2,0.9-4.8,1.3-7.6,1.3c-3.7,0-6.6-0.9-8.6-2.6s-3-4.2-3-7.4c0-3.1,0.9-5.5,2.7-7
			c1.8-1.6,5.3-2.8,10.4-3.7c4.3-0.7,6.9-1.5,8.1-2.4c1.1-0.9,1.7-2.2,1.7-4.1c0-1.8-0.6-3.2-1.9-4.3s-2.9-1.6-5.1-1.6
			c-0.7,0-1.4,0.1-2.2,0.3c-0.7,0.2-1.5,0.5-2.3,0.9c1.3,0.4,2.3,1,2.9,1.8c0.6,0.8,1,1.8,1,3.1c0,1.5-0.6,2.8-1.8,3.7
			c-1.2,1-2.8,1.4-4.7,1.4c-2.3,0-4.1-0.5-5.4-1.6c-1.3-1.1-1.9-2.6-1.9-4.6c0-3.1,1.6-5.5,4.7-7.2c3.2-1.7,7.6-2.6,13.3-2.6
			c3.1,0,5.9,0.2,8.3,0.7c2.4,0.5,4.3,1.2,5.6,2c1.5,1,2.6,2.2,3.2,3.6s0.9,3.6,0.9,6.6v13.7c0,0.9,0.1,1.5,0.3,1.8s0.6,0.4,1.2,0.4
			c0.6,0,1-0.1,1.2-0.4s0.3-0.9,0.3-1.8v-4.3h4.9v4.6c0,3.9-0.9,6.7-2.6,8.3c-1.8,1.7-4.6,2.5-8.6,2.5c-2.2,0-4.2-0.4-5.8-1.2
			S469,471.9,467.9,470.2z M466.4,457.5c-0.9,0.5-2,1.1-3.5,1.8c-3.3,1.6-5,3.1-5,4.6c0,1,0.4,1.9,1.1,2.5c0.7,0.7,1.7,1,2.8,1
			c1.4,0,2.5-0.5,3.4-1.4s1.3-2.2,1.3-3.7V462L466.4,457.5z"/>
	</g>
</g>
</svg>
